HIERARCHY
ROOT Hips
{
	OFFSET 0.000000 0.000000 0.000000 
	CHANNELS 6 Xposition Yposition Zposition Zrotation Yrotation Xrotation
	JOINT LeftUpLeg
	{
		OFFSET 1.363060 -1.794630 0.839290 
		CHANNELS 3 Zrotation Yrotation Xrotation
		JOINT LeftLeg
		{
			OFFSET 2.448110 -6.726130 0.000000 
			CHANNELS 3 Zrotation Yrotation Xrotation
			JOINT LeftFoot
			{
				OFFSET 2.562200 -7.039590 0.000000 
				CHANNELS 3 Zrotation Yrotation Xrotation
				JOINT LeftToeBase
				{
					OFFSET 0.157640 -0.433110 2.322550 
					CHANNELS 3 Zrotation Yrotation Xrotation
					End Site
					{
						OFFSET 0.000000 0.000000 0.000000 
					}
				}
			}
		}
	}
	JOINT RightUpLeg
	{
		OFFSET -1.305520 -1.794630 0.839290 
		CHANNELS 3 Zrotation Yrotation Xrotation
		JOINT RightLeg
		{
			OFFSET -2.542530 -6.985550 0.000000 
			CHANNELS 3 Zrotation Yrotation Xrotation
			JOINT RightFoot
			{
				OFFSET -2.568260 -7.056230 0.000000 
				CHANNELS 3 Zrotation Yrotation Xrotation
				JOINT RightToeBase
				{
					OFFSET -0.164730 -0.452590 2.363150 
					CHANNELS 3 Zrotation Yrotation Xrotation
					End Site
					{
						OFFSET 0.000000 0.000000 0.000000 
					}
				}
			}
		}
	}
	JOINT Spine
	{
		OFFSET 0.028270 2.035590 -0.193380 
		CHANNELS 3 Zrotation Yrotation Xrotation
		JOINT Spine1
		{
			OFFSET 0.056720 2.048850 -0.042750 
			CHANNELS 3 Zrotation Yrotation Xrotation
			JOINT Neck1
			{
				OFFSET -0.054170 1.746240 0.172020 
				CHANNELS 3 Zrotation Yrotation Xrotation
				JOINT Head
				{
					OFFSET 0.104070 1.761360 -0.123970 
					CHANNELS 3 Zrotation Yrotation Xrotation
					End Site
					{
						OFFSET 0.000000 0.000000 0.000000 
					}
				}
			}
			JOINT LeftArm
			{
				OFFSET 3.362410 1.200890 -0.311210 
				CHANNELS 3 Zrotation Yrotation Xrotation
				JOINT LeftForeArm
				{
					OFFSET 4.983000 -0.000000 -0.000000 
					CHANNELS 3 Zrotation Yrotation Xrotation
					JOINT LeftHand
					{
						OFFSET 3.483560 -0.000000 -0.000000 
						CHANNELS 3 Zrotation Yrotation Xrotation
						JOINT LeftHandIndex1
						{
							OFFSET 0.715260 -0.000000 -0.000000 
							CHANNELS 3 Zrotation Yrotation Xrotation
							End Site
							{
								OFFSET 0.000000 0.000000 0.000000 
							}
						}
					}
				}
			}
			JOINT RightArm
			{
				OFFSET -3.136600 1.374050 -0.404650 
				CHANNELS 3 Zrotation Yrotation Xrotation
				JOINT RightForeArm
				{
					OFFSET -5.241900 -0.000000 -0.000000 
					CHANNELS 3 Zrotation Yrotation Xrotation
					JOINT RightHand
					{
						OFFSET -3.444170 -0.000000 -0.000000 
						CHANNELS 3 Zrotation Yrotation Xrotation
						JOINT RightHandIndex1
						{
							OFFSET -0.622530 -0.000000 -0.000000 
							CHANNELS 3 Zrotation Yrotation Xrotation
							End Site
							{
								OFFSET 0.000000 0.000000 0.000000 
							}
						}
					}
				}
			}
		}
	}
}
MOTION
Frames: 13
Frame Time: 0.041667
9.044963 14.546834 -4.701535 -1.881553 -4.123024 3.906017 -10.344653 32.611384 -61.999165 3.938394 35.004628 40.415276 12.944716 17.284644 59.800057 0.227300 -3.069000 -8.470900 8.443453 -36.126972 -70.210918 1.276958 -37.011771 40.471871 -15.191378 -16.970146 61.851306 -1.066200 -6.564400 18.431200 -3.776312 -0.549262 -3.767398 2.336165 0.371348 -8.132901 5.767328 -3.178578 9.199102 1.991700 -1.661600 13.566800 -27.317640 17.274009 93.313619 17.209770 -27.959621 -10.801415 -8.791067 -5.207021 33.330128 -7.125000 0.000000 0.000000 14.027869 -13.859208 101.105892 -27.821273 30.316050 -22.522302 1.810625 5.010395 30.883113 7.125000 0.000000 0.000000 
9.044037 14.543438 -4.699682 -1.816637 -4.179968 3.909745 -10.408845 32.549293 -61.994971 4.066330 34.960735 40.456998 12.873090 17.303483 59.774776 0.220700 -3.024200 -8.346200 8.482814 -36.166862 -70.232085 1.186157 -36.988296 40.527226 -15.187047 -16.909724 61.870978 -1.054800 -6.530400 18.331300 -3.852414 -0.548098 -3.703388 2.278133 0.382886 -8.059378 5.766752 -3.140933 9.281159 1.972100 -1.632500 13.619900 -27.490377 17.229102 92.965139 17.364088 -28.075732 -10.964736 -8.574917 -5.470247 33.754347 -7.125000 0.000000 0.000000 14.151118 -13.859934 101.059517 -28.041952 30.440393 -22.687133 1.822985 5.099878 30.729401 7.125000 0.000000 0.000000 
9.042648 14.546526 -4.702769 -1.833459 -4.167830 3.928485 -10.386595 32.596380 -62.011218 3.970923 34.995225 40.425107 12.922711 17.321591 59.747292 0.218600 -3.009900 -8.306300 8.537391 -36.204119 -70.211329 1.253259 -36.997094 40.482404 -15.201522 -16.839181 61.890813 -1.023700 -6.436400 18.055900 -3.834215 -0.568733 -3.653822 2.268352 0.382800 -8.018889 5.774865 -3.080585 9.358996 1.972900 -1.602600 13.642200 -27.755898 17.270207 92.527922 17.463307 -28.208387 -11.088277 -8.556820 -5.488871 34.455420 -7.125000 0.000000 0.000000 14.231202 -13.870300 101.101891 -28.269694 30.555051 -22.865381 1.824885 5.214211 30.466494 7.125000 0.000000 0.000000 
9.041258 14.542821 -4.697984 -1.780040 -4.204866 3.944672 -10.428086 32.549766 -62.030637 4.074495 34.962613 40.467259 12.878021 17.303712 59.753053 0.217500 -3.002400 -8.285500 8.573030 -36.251025 -70.190586 1.152017 -36.978531 40.530078 -15.203865 -16.769588 61.915641 -0.998000 -6.357400 17.825100 -3.862332 -0.573676 -3.600813 2.206253 0.399706 -7.948527 5.760746 -3.081397 9.438879 1.931300 -1.587300 13.710700 -27.879078 17.245129 92.119468 17.415580 -28.217738 -11.083777 -8.483997 -5.286177 35.766205 -7.125000 0.000000 0.000000 14.377060 -13.912769 100.999787 -28.472041 30.692796 -23.025647 1.813445 5.326622 30.369023 7.125000 0.000000 0.000000 
9.039869 14.542358 -4.698139 -1.731059 -4.239650 3.963500 -10.484349 32.503072 -62.015623 4.142159 34.935296 40.487962 12.834643 17.284492 59.740497 0.223000 -3.039900 -8.389800 8.624869 -36.276630 -70.215752 1.138006 -36.957480 40.538625 -15.211091 -16.691364 61.943384 -0.963300 -6.249200 17.509300 -3.906385 -0.619423 -3.533459 2.206541 0.406106 -7.898389 5.766131 -3.036329 9.504108 1.934900 -1.564900 13.729100 -28.055720 17.196404 91.771119 17.429475 -28.254437 -11.109543 -8.234324 -5.356749 36.621310 -7.125000 0.000000 0.000000 14.452249 -13.871194 101.006564 -28.637710 30.723419 -23.046227 2.014973 5.358966 30.218511 7.125000 0.000000 0.000000 
9.038789 14.545136 -4.699837 -1.748850 -4.176336 4.002457 -10.443974 32.592696 -62.114471 3.979279 34.995262 40.443899 12.943470 17.277508 59.744908 0.221500 -3.029400 -8.360700 8.606223 -36.273033 -70.004382 1.195640 -36.978485 40.438390 -15.252803 -16.518087 61.981203 -0.866200 -5.934500 16.594400 -3.791492 -0.645432 -3.482442 2.114118 0.404875 -7.838296 5.754866 -3.041484 9.601452 1.903100 -1.557100 13.780500 -28.337546 17.158748 91.223074 17.423182 -28.292324 -11.131187 -8.328566 -5.411114 37.270159 -7.125000 0.000000 0.000000 14.577311 -13.902476 100.975515 -28.819523 30.858889 -23.174003 1.978029 5.370830 30.040923 7.125000 0.000000 0.000000 
9.036936 14.545291 -4.699374 -1.758047 -4.151735 4.041654 -10.443317 32.631406 -62.172517 3.915158 35.012409 40.428774 12.985890 17.254614 59.732223 0.219200 -3.013700 -8.316900 8.635238 -36.288791 -69.901403 1.202672 -36.981795 40.394767 -15.280722 -16.444737 61.996361 -0.816400 -5.765700 16.106100 -3.738394 -0.649393 -3.413320 1.991752 0.405811 -7.775008 5.764946 -2.996972 9.672030 1.920500 -1.529600 13.822500 -28.482289 17.041226 90.684155 17.334800 -28.247518 -11.094848 -8.083790 -5.506871 38.239951 -7.125000 0.000000 0.000000 14.739230 -13.960456 100.780879 -28.878062 31.064281 -23.432626 1.454146 5.716437 29.750699 7.125000 0.000000 0.000000 
9.036936 14.550230 -4.701380 -1.813789 -4.174929 4.053541 -10.449268 32.658958 -62.147810 3.804989 35.038636 40.388953 13.042256 17.260878 59.750757 0.225700 -3.057800 -8.439800 8.796616 -36.380904 -70.030004 1.342391 -36.986244 40.358245 -15.285445 -16.376012 62.021162 -0.825500 -5.796800 16.195900 -3.773870 -0.647535 -3.300003 1.904348 0.407731 -7.735143 5.746942 -2.988257 9.745416 1.898300 -1.516700 13.852000 -28.582100 16.960306 90.181670 17.285650 -28.233834 -11.103925 -7.839458 -5.542479 39.475939 -7.125000 0.000000 0.000000 14.888866 -14.007246 100.704365 -29.017855 31.186210 -23.531550 1.431385 5.772961 29.653723 7.125000 0.000000 0.000000 
9.035547 14.546989 -4.695360 -1.723139 -4.239361 4.083405 -10.555971 32.594587 -62.158663 3.966891 34.979287 40.447539 12.956796 17.273532 59.729310 0.220300 -3.021400 -8.338200 8.847412 -36.399349 -70.046571 1.231287 -36.948607 40.407801 -15.296422 -16.361055 62.039625 -0.819300 -5.775500 16.134500 -3.838277 -0.666380 -3.211249 1.846961 0.427247 -7.652162 5.731901 -2.983813 9.820112 1.880300 -1.507100 13.900500 -28.656811 16.841925 89.714418 17.232797 -28.203350 -11.097483 -7.692060 -5.473326 40.624930 -7.125000 0.000000 0.000000 15.028860 -14.034778 100.643984 -29.141745 31.273833 -23.569967 1.479491 5.823198 29.523460 7.125000 0.000000 0.000000 
9.034158 14.548841 -4.693508 -1.764976 -4.215169 4.129619 -10.546686 32.640118 -62.217066 3.884661 34.999572 40.427436 13.014474 17.265288 59.731286 0.215100 -2.986100 -8.240100 8.967217 -36.475552 -70.051144 1.246682 -36.946423 40.389753 -15.309518 -16.318736 62.052383 -0.797600 -5.700300 15.917400 -3.788864 -0.657454 -3.147164 1.756463 0.429994 -7.622950 5.708329 -2.998460 9.891014 1.857100 -1.507700 13.940700 -28.700098 16.719063 89.426921 17.188108 -28.157888 -11.081087 -7.470980 -5.534520 41.561023 -7.125000 0.000000 0.000000 15.156531 -14.126541 100.579087 -29.253021 31.374803 -23.627190 1.500886 5.865444 29.404288 7.125000 0.000000 0.000000 
9.033077 14.550847 -4.691656 -1.751392 -4.233226 4.179854 -10.585026 32.644910 -62.258542 3.880768 34.991351 40.429099 13.022698 17.279811 59.719554 0.216000 -2.991900 -8.256100 9.052416 -36.511860 -70.052028 1.249164 -36.930440 40.374007 -15.323895 -16.246528 62.073031 -0.783600 -5.651400 15.776200 -3.774846 -0.657498 -3.074536 1.683508 0.443565 -7.583333 5.681697 -2.976020 9.972354 1.828800 -1.489500 14.016300 -28.713841 16.578885 89.236343 17.149280 -28.103476 -11.066590 -7.092954 -5.761211 42.285067 -7.125000 0.000000 0.000000 15.295760 -14.173847 100.474386 -29.283412 31.437326 -23.589624 1.514333 5.848334 29.226082 7.125000 0.000000 0.000000 
9.032306 14.552082 -4.687643 -1.715580 -4.281799 4.218308 -10.652896 32.610546 -62.255276 3.958303 34.955721 40.455785 12.974909 17.282423 59.684628 0.215500 -2.988500 -8.246700 9.142556 -36.549504 -70.099376 1.207379 -36.904861 40.395451 -15.334269 -16.232448 62.085977 -0.787000 -5.663200 15.810100 -3.825061 -0.654210 -2.973454 1.609803 0.463684 -7.521470 5.652001 -2.989203 10.050570 1.803800 -1.489400 14.071200 -28.721341 16.435957 89.140923 17.173048 -28.068397 -11.059410 -7.141824 -5.700878 42.754774 -7.125000 0.000000 0.000000 15.460849 -14.210592 100.344264 -29.308348 31.503159 -23.542725 1.518590 5.873722 28.960898 7.125000 0.000000 0.000000 
9.032151 14.554706 -4.685018 -1.702554 -4.303140 4.272255 -10.705590 32.596664 -62.282885 3.969627 34.940390 40.462505 12.973565 17.278693 59.684799 0.215500 -2.988300 -8.246100 9.250595 -36.594013 -70.139958 1.217958 -36.882505 40.384977 -15.347431 -16.175603 62.103100 -0.771500 -5.608400 15.652400 -3.832946 -0.664676 -2.884713 1.556372 0.479541 -7.454197 5.617827 -2.960005 10.132186 1.767300 -1.469800 14.144800 -28.755453 16.319449 89.056809 17.213786 -28.054132 -11.062572 -7.272862 -5.629940 43.146954 -7.125000 0.000000 0.000000 15.574045 -14.189773 100.246955 -29.283364 31.503713 -23.417995 1.576771 5.865065 28.640262 7.125000 0.000000 0.000000 
